<svg width="75" height="51" viewBox="0 0 75 51" fill="none" xmlns="http://www.w3.org/2000/svg">
<rect width="75" height="51" rx="6" fill="#133E87"/>
<rect x="8" y="10" width="18" height="13" rx="3" fill="#D9C240"/>
<path d="M9.928 41C9.82133 41 9.728 40.96 9.648 40.88C9.568 40.8 9.528 40.704 9.528 40.592V35.712L8.944 35.96C8.85333 35.9973 8.768 36.016 8.688 36.016C8.57067 36.016 8.472 35.9787 8.392 35.904C8.31733 35.8293 8.28 35.7333 8.28 35.616C8.28 35.5307 8.30133 35.4533 8.344 35.384C8.38667 35.3147 8.45333 35.264 8.544 35.232L9.792 34.784C9.81867 34.7733 9.84533 34.7653 9.872 34.76C9.89867 34.7547 9.92267 34.752 9.944 34.752C10.0667 34.752 10.1627 34.792 10.232 34.872C10.3067 34.9467 10.344 35.0453 10.344 35.168V40.592C10.344 40.704 10.304 40.8 10.224 40.88C10.144 40.96 10.0453 41 9.928 41ZM12.0686 41C11.9513 41 11.8526 40.96 11.7726 40.88C11.698 40.8 11.6606 40.704 11.6606 40.592C11.6606 40.4747 11.698 40.3787 11.7726 40.304L14.0446 37.648C14.2046 37.4613 14.3273 37.2853 14.4126 37.12C14.5033 36.9547 14.5486 36.7973 14.5486 36.648C14.5486 36.4133 14.5086 36.2107 14.4286 36.04C14.3486 35.8693 14.234 35.7387 14.0846 35.648C13.9353 35.552 13.7566 35.504 13.5486 35.504C13.346 35.504 13.162 35.5573 12.9966 35.664C12.8366 35.7653 12.7086 35.904 12.6126 36.08C12.522 36.2507 12.4766 36.44 12.4766 36.648C12.4766 36.7547 12.4366 36.848 12.3566 36.928C12.282 37.008 12.186 37.048 12.0686 37.048C11.9566 37.048 11.8606 37.008 11.7806 36.928C11.7006 36.848 11.6606 36.7547 11.6606 36.648C11.6606 36.2853 11.7433 35.9627 11.9086 35.68C12.074 35.392 12.298 35.1653 12.5806 35C12.8686 34.8347 13.1913 34.752 13.5486 34.752C13.9113 34.752 14.226 34.8293 14.4926 34.984C14.7593 35.1387 14.9646 35.3573 15.1086 35.64C15.258 35.9227 15.3326 36.2587 15.3326 36.648C15.3326 36.8187 15.2953 36.992 15.2206 37.168C15.1513 37.344 15.0606 37.512 14.9486 37.672C14.842 37.832 14.7326 37.976 14.6206 38.104L12.7886 40.184H15.0286C15.146 40.184 15.2446 40.2267 15.3246 40.312C15.4046 40.392 15.4446 40.4853 15.4446 40.592C15.4446 40.704 15.4046 40.8 15.3246 40.88C15.2446 40.96 15.146 41 15.0286 41H12.0686ZM18.3398 41C17.9398 41 17.5851 40.9173 17.2758 40.752C16.9664 40.5813 16.7238 40.352 16.5478 40.064C16.3718 39.7707 16.2838 39.4427 16.2838 39.08C16.2838 38.9573 16.3184 38.8587 16.3878 38.784C16.4624 38.704 16.5504 38.664 16.6518 38.664C16.7584 38.664 16.8464 38.704 16.9158 38.784C16.9851 38.8587 17.0197 38.9573 17.0197 39.08C17.0197 39.2987 17.0758 39.5013 17.1878 39.688C17.2998 39.8693 17.4518 40.016 17.6438 40.128C17.8358 40.2347 18.0518 40.288 18.2918 40.288C18.6438 40.288 18.9264 40.192 19.1398 40C19.3584 39.8027 19.4678 39.528 19.4678 39.176C19.4678 38.952 19.4198 38.752 19.3238 38.576C19.2278 38.3947 19.0971 38.2507 18.9318 38.144C18.7664 38.0373 18.5798 37.984 18.3718 37.984C18.2544 37.984 18.1558 37.944 18.0758 37.864C18.0011 37.784 17.9638 37.6853 17.9638 37.568C17.9638 37.4507 18.0011 37.3547 18.0758 37.28C18.1558 37.2 18.2544 37.16 18.3718 37.16C18.5211 37.16 18.6651 37.1227 18.8038 37.048C18.9424 36.968 19.0571 36.864 19.1478 36.736C19.2384 36.6027 19.2838 36.4533 19.2838 36.288C19.2838 36.0533 19.1984 35.856 19.0278 35.696C18.8571 35.536 18.6384 35.456 18.3718 35.456C18.1691 35.456 17.9824 35.496 17.8118 35.576C17.6464 35.656 17.5131 35.7627 17.4118 35.896C17.3158 36.0293 17.2678 36.1787 17.2678 36.344C17.2678 36.4667 17.2331 36.5707 17.1638 36.656C17.0944 36.736 17.0064 36.776 16.8997 36.776C16.7984 36.776 16.7104 36.7387 16.6358 36.664C16.5664 36.584 16.5318 36.4853 16.5318 36.368C16.5318 36.0587 16.6118 35.7813 16.7718 35.536C16.9318 35.2907 17.1504 35.0987 17.4278 34.96C17.7051 34.816 18.0144 34.744 18.3558 34.744C18.6704 34.744 18.9531 34.8133 19.2038 34.952C19.4598 35.0853 19.6598 35.2693 19.8038 35.504C19.9531 35.7333 20.0278 35.9947 20.0278 36.288C20.0278 36.496 19.9797 36.68 19.8837 36.84C19.7931 37 19.6758 37.1387 19.5318 37.256C19.3878 37.368 19.2358 37.4613 19.0758 37.536C19.3584 37.632 19.5878 37.7627 19.7638 37.928C19.9398 38.088 20.0678 38.2747 20.1478 38.488C20.2331 38.7013 20.2758 38.9333 20.2758 39.184C20.2758 39.5307 20.1878 39.8427 20.0118 40.12C19.8358 40.392 19.6011 40.608 19.3078 40.768C19.0144 40.9227 18.6918 41 18.3398 41ZM26.5926 41C26.4859 41 26.3952 40.96 26.3206 40.88C26.2459 40.8 26.2086 40.704 26.2086 40.592V39.584H23.5446C23.4219 39.584 23.3259 39.5467 23.2566 39.472C23.1872 39.3973 23.1472 39.312 23.1366 39.216C23.1312 39.1147 23.1579 39.024 23.2166 38.944L26.2806 34.928C26.3232 34.8747 26.3712 34.832 26.4246 34.8C26.4832 34.768 26.5472 34.752 26.6166 34.752C26.7286 34.752 26.8192 34.792 26.8886 34.872C26.9579 34.952 26.9926 35.0507 26.9926 35.168V38.848H27.4726C27.5846 38.848 27.6806 38.8747 27.7606 38.928C27.8406 38.9813 27.8806 39.0773 27.8806 39.216C27.8806 39.3173 27.8406 39.4053 27.7606 39.48C27.6806 39.5493 27.5846 39.584 27.4726 39.584H26.9926V40.592C26.9926 40.704 26.9552 40.8 26.8806 40.88C26.8059 40.96 26.7099 41 26.5926 41ZM24.0246 39.072L23.8086 38.848H26.2086V35.552L26.4566 35.872L24.0246 39.072ZM30.3567 41C29.9727 41 29.626 40.912 29.3167 40.736C29.0127 40.5547 28.77 40.3093 28.5887 40C28.4127 39.6907 28.3247 39.344 28.3247 38.96C28.3247 38.8427 28.362 38.7467 28.4367 38.672C28.5114 38.592 28.6074 38.552 28.7247 38.552C28.842 38.552 28.9407 38.592 29.0207 38.672C29.1007 38.7467 29.1407 38.8427 29.1407 38.96C29.1407 39.1893 29.194 39.3973 29.3007 39.584C29.4074 39.7707 29.5514 39.9173 29.7327 40.024C29.9194 40.1307 30.1274 40.184 30.3567 40.184C30.5914 40.184 30.7994 40.1307 30.9807 40.024C31.1674 39.9173 31.314 39.7707 31.4207 39.584C31.5274 39.3973 31.5807 39.1893 31.5807 38.96C31.5807 38.7253 31.5274 38.5173 31.4207 38.336C31.314 38.1493 31.1674 38.0027 30.9807 37.896C30.7994 37.7893 30.5914 37.736 30.3567 37.736H29.0207C28.9034 37.736 28.8074 37.6987 28.7327 37.624C28.658 37.544 28.6207 37.4453 28.6207 37.328V35.168C28.6207 35.0507 28.658 34.952 28.7327 34.872C28.8074 34.792 28.9034 34.752 29.0207 34.752H31.6927C31.8047 34.752 31.9007 34.7947 31.9807 34.88C32.0607 34.96 32.1007 35.056 32.1007 35.168C32.1007 35.2747 32.0607 35.368 31.9807 35.448C31.906 35.528 31.81 35.568 31.6927 35.568H29.4287V36.92H30.3567C30.746 36.92 31.0927 37.0107 31.3967 37.192C31.706 37.368 31.9487 37.6107 32.1247 37.92C32.306 38.224 32.3967 38.5707 32.3967 38.96C32.3967 39.344 32.306 39.6907 32.1247 40C31.9487 40.3093 31.706 40.5547 31.3967 40.736C31.0927 40.912 30.746 41 30.3567 41ZM35.2439 41C34.8759 41 34.5479 40.92 34.2599 40.76C33.9773 40.5947 33.7559 40.3707 33.5959 40.088C33.4359 39.8 33.3559 39.472 33.3559 39.104C33.3559 38.7307 33.4359 38.4027 33.5959 38.12C33.7559 37.832 33.9773 37.608 34.2599 37.448C34.5479 37.2827 34.8759 37.2 35.2439 37.2C35.6119 37.2 35.9373 37.2827 36.2199 37.448C36.5026 37.608 36.7239 37.832 36.8839 38.12C37.0439 38.4027 37.1239 38.7307 37.1239 39.104C37.1239 39.472 37.0439 39.8 36.8839 40.088C36.7239 40.3707 36.5026 40.5947 36.2199 40.76C35.9373 40.92 35.6119 41 35.2439 41ZM35.2359 40.28C35.4546 40.28 35.6466 40.232 35.8119 40.136C35.9826 40.0347 36.1159 39.896 36.2119 39.72C36.3079 39.5387 36.3559 39.3333 36.3559 39.104C36.3559 38.8693 36.3079 38.664 36.2119 38.488C36.1159 38.312 35.9826 38.1733 35.8119 38.072C35.6466 37.9707 35.4546 37.92 35.2359 37.92C35.0173 37.92 34.8226 37.9707 34.6519 38.072C34.4866 38.1733 34.3559 38.312 34.2599 38.488C34.1693 38.664 34.1239 38.8693 34.1239 39.104C34.1239 39.3333 34.1693 39.5387 34.2599 39.72C34.3559 39.896 34.4866 40.0347 34.6519 40.136C34.8226 40.232 35.0173 40.28 35.2359 40.28ZM33.6199 38.08L35.4759 34.984C35.5719 34.8347 35.6946 34.76 35.8439 34.76C35.9559 34.76 36.0493 34.792 36.1239 34.856C36.1986 34.92 36.2439 35 36.2599 35.096C36.2813 35.192 36.2626 35.288 36.2039 35.384L35.0679 37.272L33.6199 38.08ZM40.9721 41C40.8655 41 40.7721 40.96 40.6921 40.88C40.6121 40.8 40.5721 40.704 40.5721 40.592C40.5721 40.5493 40.5775 40.5093 40.5881 40.472C40.6041 40.4293 40.6228 40.384 40.6441 40.336L42.9401 35.568H40.5081C40.3908 35.568 40.2921 35.5307 40.2121 35.456C40.1375 35.376 40.1001 35.2773 40.1001 35.16C40.1001 35.0427 40.1375 34.9467 40.2121 34.872C40.2921 34.792 40.3908 34.752 40.5081 34.752H43.5561C43.6681 34.752 43.7641 34.792 43.8441 34.872C43.9241 34.952 43.9641 35.048 43.9641 35.16C43.9641 35.1973 43.9588 35.2347 43.9481 35.272C43.9375 35.304 43.9241 35.3387 43.9081 35.376L41.3481 40.776C41.2628 40.9253 41.1375 41 40.9721 41ZM46.1327 40.992C45.7807 40.992 45.4634 40.9093 45.1807 40.744C44.9034 40.5733 44.6847 40.344 44.5247 40.056C44.3647 39.7627 44.2847 39.4347 44.2847 39.072C44.2847 38.72 44.3647 38.4053 44.5247 38.128C44.6847 37.8453 44.9034 37.624 45.1807 37.464C45.4634 37.304 45.7807 37.224 46.1327 37.224C46.4847 37.224 46.7994 37.304 47.0767 37.464C47.354 37.624 47.5727 37.8453 47.7327 38.128C47.898 38.4053 47.978 38.72 47.9727 39.072C47.9727 39.4347 47.89 39.7627 47.7247 40.056C47.5647 40.344 47.346 40.5733 47.0687 40.744C46.7914 40.9093 46.4794 40.992 46.1327 40.992ZM46.1327 40.256C46.33 40.256 46.506 40.2027 46.6607 40.096C46.8207 39.9893 46.946 39.848 47.0367 39.672C47.1274 39.4907 47.1727 39.2907 47.1727 39.072C47.178 38.8587 47.1354 38.6693 47.0447 38.504C46.954 38.3333 46.8287 38.2 46.6687 38.104C46.514 38.0027 46.3354 37.952 46.1327 37.952C45.9354 37.952 45.7567 38.0027 45.5967 38.104C45.4367 38.2 45.3114 38.3333 45.2207 38.504C45.13 38.6693 45.0847 38.8587 45.0847 39.072C45.0847 39.2907 45.1274 39.4907 45.2127 39.672C45.3034 39.848 45.4287 39.9893 45.5887 40.096C45.7487 40.2027 45.93 40.256 46.1327 40.256ZM46.1327 37.808C45.8287 37.808 45.5567 37.7413 45.3167 37.608C45.082 37.4747 44.8954 37.296 44.7567 37.072C44.618 36.8427 44.5487 36.584 44.5487 36.296C44.5487 35.992 44.618 35.7227 44.7567 35.488C44.8954 35.248 45.082 35.0587 45.3167 34.92C45.5567 34.776 45.8287 34.704 46.1327 34.704C46.4367 34.6987 46.706 34.7653 46.9407 34.904C47.1807 35.0427 47.37 35.232 47.5087 35.472C47.6474 35.712 47.714 35.9867 47.7087 36.296C47.7087 36.584 47.6394 36.8427 47.5007 37.072C47.362 37.296 47.1727 37.4747 46.9327 37.608C46.698 37.7413 46.4314 37.808 46.1327 37.808ZM46.1327 37.144C46.282 37.144 46.4154 37.104 46.5327 37.024C46.65 36.944 46.7434 36.84 46.8127 36.712C46.882 36.5787 46.9167 36.432 46.9167 36.272C46.922 36.112 46.89 35.9707 46.8207 35.848C46.7514 35.7253 46.658 35.6293 46.5407 35.56C46.4234 35.4853 46.2874 35.448 46.1327 35.448C45.9087 35.448 45.722 35.5253 45.5727 35.68C45.4234 35.8347 45.346 36.032 45.3407 36.272C45.3354 36.512 45.4074 36.7173 45.5567 36.888C45.7114 37.0587 45.9034 37.144 46.1327 37.144ZM50.3728 34.744C50.7461 34.744 51.0741 34.8267 51.3568 34.992C51.6395 35.152 51.8608 35.376 52.0208 35.664C52.1808 35.9467 52.2608 36.272 52.2608 36.64C52.2608 37.008 52.1808 37.336 52.0208 37.624C51.8608 37.912 51.6395 38.1387 51.3568 38.304C51.0741 38.464 50.7461 38.544 50.3728 38.544C50.0101 38.544 49.6848 38.464 49.3968 38.304C49.1141 38.1387 48.8928 37.912 48.7328 37.624C48.5728 37.336 48.4928 37.008 48.4928 36.64C48.4928 36.272 48.5728 35.9467 48.7328 35.664C48.8928 35.376 49.1141 35.152 49.3968 34.992C49.6795 34.8267 50.0048 34.744 50.3728 34.744ZM50.3808 35.464C50.1621 35.464 49.9675 35.5147 49.7968 35.616C49.6315 35.712 49.5008 35.848 49.4048 36.024C49.3088 36.2 49.2608 36.4053 49.2608 36.64C49.2608 36.8693 49.3088 37.0747 49.4048 37.256C49.5008 37.432 49.6315 37.5707 49.7968 37.672C49.9675 37.7733 50.1621 37.824 50.3808 37.824C50.5995 37.824 50.7915 37.7733 50.9568 37.672C51.1275 37.5707 51.2581 37.432 51.3488 37.256C51.4448 37.0747 51.4928 36.8693 51.4928 36.64C51.4928 36.4053 51.4448 36.2 51.3488 36.024C51.2581 35.848 51.1275 35.712 50.9568 35.616C50.7915 35.5147 50.5995 35.464 50.3808 35.464ZM51.9968 37.664L50.1408 40.76C50.0448 40.9093 49.9221 40.984 49.7728 40.984C49.6661 40.984 49.5728 40.952 49.4928 40.888C49.4181 40.824 49.3701 40.744 49.3488 40.648C49.3328 40.5467 49.3541 40.4507 49.4128 40.36L50.5488 38.472L51.9968 37.664ZM57.365 34.744C57.7383 34.744 58.0663 34.8267 58.349 34.992C58.6317 35.152 58.853 35.376 59.013 35.664C59.173 35.9467 59.253 36.272 59.253 36.64C59.253 37.008 59.173 37.336 59.013 37.624C58.853 37.912 58.6317 38.1387 58.349 38.304C58.0663 38.464 57.7383 38.544 57.365 38.544C57.0023 38.544 56.677 38.464 56.389 38.304C56.1063 38.1387 55.885 37.912 55.725 37.624C55.565 37.336 55.485 37.008 55.485 36.64C55.485 36.272 55.565 35.9467 55.725 35.664C55.885 35.376 56.1063 35.152 56.389 34.992C56.6717 34.8267 56.997 34.744 57.365 34.744ZM57.373 35.464C57.1543 35.464 56.9597 35.5147 56.789 35.616C56.6237 35.712 56.493 35.848 56.397 36.024C56.301 36.2 56.253 36.4053 56.253 36.64C56.253 36.8693 56.301 37.0747 56.397 37.256C56.493 37.432 56.6237 37.5707 56.789 37.672C56.9597 37.7733 57.1543 37.824 57.373 37.824C57.5917 37.824 57.7837 37.7733 57.949 37.672C58.1197 37.5707 58.2503 37.432 58.341 37.256C58.437 37.0747 58.485 36.8693 58.485 36.64C58.485 36.4053 58.437 36.2 58.341 36.024C58.2503 35.848 58.1197 35.712 57.949 35.616C57.7837 35.5147 57.5917 35.464 57.373 35.464ZM58.989 37.664L57.133 40.76C57.037 40.9093 56.9143 40.984 56.765 40.984C56.6583 40.984 56.565 40.952 56.485 40.888C56.4103 40.824 56.3623 40.744 56.341 40.648C56.325 40.5467 56.3463 40.4507 56.405 40.36L57.541 38.472L58.989 37.664ZM62.0854 41C61.6801 41 61.3334 40.8773 61.0454 40.632C60.7628 40.3813 60.5468 40.024 60.3974 39.56C60.2481 39.0907 60.1734 38.528 60.1734 37.872C60.1734 37.216 60.2481 36.656 60.3974 36.192C60.5468 35.7227 60.7628 35.3653 61.0454 35.12C61.3334 34.8693 61.6801 34.744 62.0854 34.744C62.4908 34.744 62.8348 34.872 63.1174 35.128C63.4054 35.3787 63.6241 35.7387 63.7734 36.208C63.9228 36.672 63.9974 37.2267 63.9974 37.872C63.9974 38.5173 63.9228 39.0747 63.7734 39.544C63.6241 40.008 63.4054 40.368 63.1174 40.624C62.8348 40.8747 62.4908 41 62.0854 41ZM62.0854 40.168C62.3308 40.168 62.5334 40.0693 62.6934 39.872C62.8534 39.6693 62.9734 39.3947 63.0534 39.048C63.1334 38.7013 63.1734 38.3093 63.1734 37.872C63.1734 37.4347 63.1334 37.0427 63.0534 36.696C62.9734 36.3493 62.8534 36.0747 62.6934 35.872C62.5334 35.6693 62.3308 35.568 62.0854 35.568C61.8401 35.568 61.6374 35.6693 61.4774 35.872C61.3174 36.0693 61.1974 36.3413 61.1174 36.688C61.0374 37.0347 60.9974 37.4293 60.9974 37.872C60.9974 38.3147 61.0374 38.7093 61.1174 39.056C61.1974 39.4027 61.3174 39.6747 61.4774 39.872C61.6428 40.0693 61.8454 40.168 62.0854 40.168Z" fill="white"/>
</svg>
