<svg width="31" height="31" viewBox="0 0 31 31" fill="none" xmlns="http://www.w3.org/2000/svg">
<g clip-path="url(#clip0_1_371)">
<path fill-rule="evenodd" clip-rule="evenodd" d="M4.99756 0.790039H25.6226C28.2114 0.790039 30.3101 2.8887 30.3101 5.47754V26.1025C30.3101 28.6914 28.2114 30.79 25.6226 30.79H4.99756C2.40872 30.79 0.310059 28.6914 0.310059 26.1025V5.47754C0.310059 2.8887 2.40872 0.790039 4.99756 0.790039ZM13.096 24.2275H16.1663V15.7942H18.4696L18.9251 13.159H16.1663V11.2495C16.1663 10.634 16.5643 9.98766 17.1332 9.98766H18.7011V7.35254H16.7795V7.36435C13.7729 7.47348 13.1552 9.21479 13.1016 11.0439H13.096V13.159H11.5601V15.7942H13.096V24.2275Z" fill="white"/>
<path d="M13.096 24.2275H16.1663V15.7942H18.4696L18.9252 13.159H16.1663V11.2495C16.1663 10.634 16.5643 9.98766 17.1332 9.98766H18.7011V7.35254H16.7795V7.36435C13.7729 7.47348 13.1551 9.21479 13.1016 11.0439H13.096V13.159H11.5601V15.7942H13.096V24.2275Z" fill="#165BFB"/>
</g>
<defs>
<clipPath id="clip0_1_371">
<rect x="0.310059" y="0.790039" width="30" height="30" rx="4" fill="white"/>
</clipPath>
</defs>
</svg>
