<svg width="31" height="31" viewBox="0 0 31 31" fill="none" xmlns="http://www.w3.org/2000/svg">
<g clip-path="url(#clip0_1_377)">
<path fill-rule="evenodd" clip-rule="evenodd" d="M4.99756 0.790039H25.6226C28.2114 0.790039 30.3101 2.8887 30.3101 5.47754V26.1025C30.3101 28.6914 28.2114 30.79 25.6226 30.79H4.99756C2.40872 30.79 0.310059 28.6914 0.310059 26.1025V5.47754C0.310059 2.8887 2.40872 0.790039 4.99756 0.790039ZM9.65911 11.6646C10.6798 11.6646 11.5072 10.9101 11.5072 9.97825C11.5072 9.0456 10.6798 8.29004 9.65911 8.29004C8.63748 8.29004 7.81006 9.0456 7.81006 9.97825C7.81006 10.9101 8.63748 11.6646 9.65911 11.6646ZM8.23364 22.5129H11.5496V12.9494H8.23364V22.5129ZM16.2035 17.1939C16.2035 16.0972 16.7224 15.0247 17.9632 15.0247C19.2039 15.0247 19.5089 16.0972 19.5089 17.1677V22.3908H22.8101V16.9542C22.8101 13.177 20.5774 12.5259 19.2039 12.5259C17.8315 12.5259 17.0746 12.99 16.2035 14.1148V12.8273H12.893V22.3908H16.2035V17.1939Z" fill="white"/>
<path d="M9.65911 11.6646C8.63748 11.6646 7.81006 10.9101 7.81006 9.97825C7.81006 9.0456 8.63748 8.29004 9.65911 8.29004C10.6798 8.29004 11.5072 9.0456 11.5072 9.97825C11.5072 10.9101 10.6798 11.6646 9.65911 11.6646ZM8.23364 22.5129V12.9494H11.5496V22.5129H8.23364ZM16.2035 17.1939V22.3908H12.893V12.8273H16.2035V14.1148C17.0746 12.99 17.8315 12.5259 19.2039 12.5259C20.5774 12.5259 22.8101 13.177 22.8101 16.9542V22.3908H19.5089V17.1677C19.5089 16.0972 19.2039 15.0247 17.9632 15.0247C16.7224 15.0247 16.2035 16.0972 16.2035 17.1939Z" fill="#165BFB"/>
</g>
<defs>
<clipPath id="clip0_1_377">
<rect x="0.310059" y="0.790039" width="30" height="30" rx="4" fill="white"/>
</clipPath>
</defs>
</svg>
