<svg width="31" height="31" viewBox="0 0 31 31" fill="none" xmlns="http://www.w3.org/2000/svg">
<g clip-path="url(#clip0_1_389)">
<path d="M4.99756 0.790039H25.6226C28.2114 0.790039 30.3101 2.8887 30.3101 5.47754V26.1025C30.3101 28.6914 28.2114 30.79 25.6226 30.79H4.99756C2.40872 30.79 0.310059 28.6914 0.310059 26.1025V5.47754C0.310059 2.8887 2.40872 0.790039 4.99756 0.790039ZM12.2206 8.29004C9.79958 8.29004 7.81006 10.2769 7.81006 12.7006V18.8795C7.81006 21.3005 9.79692 23.29 12.2206 23.29H18.3995C20.8205 23.29 22.8101 21.3032 22.8101 18.8795V12.7006C22.8101 10.2796 20.8232 8.29004 18.3995 8.29004H12.2206ZM12.2206 9.65368H18.3995C20.0854 9.65368 21.4464 11.0146 21.4464 12.7006V18.8795C21.4464 20.5654 20.0854 21.9264 18.3995 21.9264H12.2206C10.5347 21.9264 9.17369 20.5654 9.17369 18.8795V12.7006C9.17369 11.0146 10.5347 9.65368 12.2206 9.65368ZM19.337 11.1452C18.9935 11.1452 18.7192 11.4195 18.7192 11.7631C18.7192 12.1066 18.9935 12.3809 19.337 12.3809C19.6806 12.3809 19.9549 12.1066 19.9549 11.7631C19.9549 11.4195 19.6806 11.1452 19.337 11.1452ZM15.3101 11.6991C13.0595 11.6991 11.2191 13.5395 11.2191 15.79C11.2191 18.0406 13.0595 19.8809 15.3101 19.8809C17.5606 19.8809 19.401 18.0406 19.401 15.79C19.401 13.5395 17.5606 11.6991 15.3101 11.6991ZM15.3101 13.0628C16.8255 13.0628 18.0373 14.2746 18.0373 15.79C18.0373 17.3055 16.8255 18.5173 15.3101 18.5173C13.7946 18.5173 12.5828 17.3055 12.5828 15.79C12.5828 14.2746 13.7946 13.0628 15.3101 13.0628Z" fill="white"/>
<path d="M12.2206 8.29004C9.79958 8.29004 7.81006 10.2769 7.81006 12.7006V18.8795C7.81006 21.3005 9.79692 23.29 12.2206 23.29H18.3995C20.8205 23.29 22.8101 21.3032 22.8101 18.8795V12.7006C22.8101 10.2796 20.8232 8.29004 18.3995 8.29004H12.2206ZM12.2206 9.65368H18.3995C20.0854 9.65368 21.4464 11.0146 21.4464 12.7006V18.8795C21.4464 20.5654 20.0854 21.9264 18.3995 21.9264H12.2206C10.5347 21.9264 9.17369 20.5654 9.17369 18.8795V12.7006C9.17369 11.0146 10.5347 9.65368 12.2206 9.65368ZM19.337 11.1452C18.9935 11.1452 18.7191 11.4195 18.7191 11.7631C18.7191 12.1066 18.9935 12.3809 19.337 12.3809C19.6806 12.3809 19.9549 12.1066 19.9549 11.7631C19.9549 11.4195 19.6806 11.1452 19.337 11.1452ZM15.3101 11.6991C13.0595 11.6991 11.2191 13.5395 11.2191 15.79C11.2191 18.0406 13.0595 19.8809 15.3101 19.8809C17.5606 19.8809 19.401 18.0406 19.401 15.79C19.401 13.5395 17.5606 11.6991 15.3101 11.6991ZM15.3101 13.0628C16.8255 13.0628 18.0373 14.2746 18.0373 15.79C18.0373 17.3055 16.8255 18.5173 15.3101 18.5173C13.7946 18.5173 12.5828 17.3055 12.5828 15.79C12.5828 14.2746 13.7946 13.0628 15.3101 13.0628Z" fill="#165BFB"/>
</g>
<defs>
<clipPath id="clip0_1_389">
<rect x="0.310059" y="0.790039" width="30" height="30" rx="4" fill="white"/>
</clipPath>
</defs>
</svg>
