<svg width="187" height="126" viewBox="0 0 187 126" fill="none" xmlns="http://www.w3.org/2000/svg">
<g filter="url(#filter0_d_7_169)">
<rect x="2" width="183" height="122" rx="10" fill="white"/>
</g>
<path d="M53.264 25.16C52.6773 25.16 52.0853 25.0853 51.488 24.936C50.8907 24.7867 50.3573 24.5733 49.888 24.296C49.4293 24.008 49.104 23.672 48.912 23.288C48.9013 23.0853 48.8907 22.8827 48.88 22.68C48.88 22.4773 48.9653 22.3227 49.136 22.216C49.3173 22.0987 49.4987 22.0667 49.68 22.12C49.872 22.1627 50.0373 22.2747 50.176 22.456C50.4533 22.7973 50.864 23.0907 51.408 23.336C51.9627 23.5813 52.5707 23.704 53.232 23.704C53.7973 23.704 54.2933 23.6027 54.72 23.4C55.1573 23.1973 55.4987 22.9147 55.744 22.552C56 22.1787 56.128 21.7573 56.128 21.288C56.128 20.6373 55.904 20.1147 55.456 19.72C55.008 19.3253 54.4267 19.128 53.712 19.128H52.656C52.4533 19.128 52.288 19.0587 52.16 18.92C52.032 18.7813 51.968 18.6107 51.968 18.408C51.968 18.184 52.032 18.0027 52.16 17.864C52.288 17.7253 52.4533 17.656 52.656 17.656H53.472C54.0373 17.656 54.512 17.4747 54.896 17.112C55.28 16.7493 55.472 16.2693 55.472 15.672C55.472 15.032 55.248 14.5627 54.8 14.264C54.352 13.9547 53.776 13.8 53.072 13.8C52.5493 13.8 52.0587 13.896 51.6 14.088C51.152 14.28 50.7573 14.5787 50.416 14.984C50.2347 15.2187 50.048 15.3733 49.856 15.448C49.664 15.5227 49.4667 15.4907 49.264 15.352C49.1147 15.2453 49.0133 15.096 48.96 14.904C48.9067 14.7013 48.9387 14.5147 49.056 14.344C49.4613 13.768 49.9947 13.2933 50.656 12.92C51.328 12.536 52.1333 12.344 53.072 12.344C53.8613 12.344 54.5547 12.488 55.152 12.776C55.7493 13.0533 56.2187 13.432 56.56 13.912C56.9013 14.3813 57.072 14.9147 57.072 15.512C57.072 15.992 56.9653 16.424 56.752 16.808C56.5493 17.1813 56.288 17.5013 55.968 17.768C55.6587 18.024 55.3333 18.2213 54.992 18.36C54.6507 18.488 54.352 18.552 54.096 18.552V18.04C54.384 18.04 54.7307 18.0987 55.136 18.216C55.5413 18.3227 55.9413 18.504 56.336 18.76C56.7413 19.016 57.072 19.3627 57.328 19.8C57.5947 20.2267 57.728 20.7547 57.728 21.384C57.728 22.088 57.5307 22.728 57.136 23.304C56.752 23.8693 56.224 24.3227 55.552 24.664C54.88 24.9947 54.1173 25.16 53.264 25.16ZM63.6974 25.064C62.9187 25.064 62.22 24.872 61.6014 24.488C60.9827 24.0933 60.492 23.5653 60.1294 22.904C59.7774 22.232 59.6014 21.4747 59.6014 20.632C59.6014 19.7893 59.7934 19.032 60.1774 18.36C60.572 17.688 61.1 17.16 61.7614 16.776C62.4334 16.3813 63.1854 16.184 64.0174 16.184C64.8494 16.184 65.596 16.3813 66.2574 16.776C66.9187 17.16 67.4414 17.688 67.8254 18.36C68.22 19.032 68.4174 19.7893 68.4174 20.632H67.7934C67.7934 21.4747 67.612 22.232 67.2494 22.904C66.8974 23.5653 66.412 24.0933 65.7934 24.488C65.1747 24.872 64.476 25.064 63.6974 25.064ZM64.0174 23.624C64.5614 23.624 65.0467 23.496 65.4734 23.24C65.9 22.9733 66.236 22.616 66.4814 22.168C66.7267 21.7093 66.8494 21.1973 66.8494 20.632C66.8494 20.056 66.7267 19.544 66.4814 19.096C66.236 18.6373 65.9 18.28 65.4734 18.024C65.0467 17.7573 64.5614 17.624 64.0174 17.624C63.484 17.624 62.9987 17.7573 62.5614 18.024C62.1347 18.28 61.7934 18.6373 61.5374 19.096C61.292 19.544 61.1694 20.056 61.1694 20.632C61.1694 21.1973 61.292 21.7093 61.5374 22.168C61.7934 22.616 62.1347 22.9733 62.5614 23.24C62.9987 23.496 63.484 23.624 64.0174 23.624ZM67.6014 25.016C67.3667 25.016 67.1694 24.9413 67.0094 24.792C66.86 24.632 66.7854 24.4347 66.7854 24.2V21.752L67.0894 20.056L68.4174 20.632V24.2C68.4174 24.4347 68.3374 24.632 68.1774 24.792C68.028 24.9413 67.836 25.016 67.6014 25.016ZM81.0698 25C80.8458 25 80.6591 24.9253 80.5098 24.776C80.3604 24.616 80.2858 24.4187 80.2858 24.184V22.072H78.0298V21.864C77.4644 21.864 76.9631 21.752 76.5258 21.528C76.0884 21.304 75.7471 20.9947 75.5018 20.6C75.2564 20.2053 75.1338 19.7467 75.1338 19.224C75.1338 18.6587 75.2671 18.152 75.5338 17.704C75.8111 17.256 76.1844 16.904 76.6538 16.648C77.1338 16.3813 77.6831 16.248 78.3018 16.248H81.0698C81.3151 16.248 81.5124 16.3227 81.6618 16.472C81.8111 16.6213 81.8858 16.8187 81.8858 17.064V24.2C81.8751 24.4347 81.7951 24.6267 81.6458 24.776C81.5071 24.9253 81.3151 25 81.0698 25ZM75.3898 24.808C75.2191 24.6587 75.1391 24.4933 75.1497 24.312C75.1604 24.1307 75.2244 23.9653 75.3418 23.816L77.2938 21.272H79.4218L76.6858 24.68C76.5044 24.9147 76.2804 25.0267 76.0138 25.016C75.7471 25.0053 75.5391 24.936 75.3898 24.808ZM78.3018 20.728H80.2858V17.768H78.3018C77.8751 17.768 77.5018 17.9067 77.1818 18.184C76.8618 18.4507 76.7018 18.7973 76.7018 19.224C76.7018 19.672 76.8618 20.0347 77.1818 20.312C77.5018 20.5893 77.8751 20.728 78.3018 20.728ZM92.1281 25C91.8935 25 91.6961 24.9253 91.5361 24.776C91.3868 24.616 91.3121 24.4187 91.3121 24.184V17.064C91.3121 16.8187 91.3868 16.6213 91.5361 16.472C91.6961 16.3227 91.8935 16.248 92.1281 16.248C92.3735 16.248 92.5655 16.3227 92.7041 16.472C92.8428 16.6213 92.9121 16.8187 92.9121 17.064V24.184C92.9121 24.4187 92.8428 24.616 92.7041 24.776C92.5655 24.9253 92.3735 25 92.1281 25ZM85.5521 25C85.3175 25 85.1255 24.9253 84.9761 24.776C84.8375 24.616 84.7681 24.4187 84.7681 24.184V17.064C84.7681 16.8187 84.8375 16.6213 84.9761 16.472C85.1255 16.3227 85.3175 16.248 85.5521 16.248C85.7975 16.248 85.9948 16.3227 86.1441 16.472C86.2935 16.6213 86.3681 16.8187 86.3681 17.064V24.184C86.3681 24.4187 86.2935 24.616 86.1441 24.776C85.9948 24.9253 85.7975 25 85.5521 25ZM86.1601 21.176V19.736H91.7761V21.176H86.1601ZM96.6154 25C96.3807 25 96.1834 24.9253 96.0234 24.776C95.874 24.616 95.7994 24.4187 95.7994 24.184V17.048C95.8207 16.8133 95.906 16.6213 96.0554 16.472C96.2047 16.3227 96.3914 16.248 96.6154 16.248C96.8607 16.248 97.058 16.3227 97.2074 16.472C97.3567 16.6213 97.4314 16.8187 97.4314 17.064V19.816H100.535V20.136C101.122 20.136 101.639 20.2373 102.087 20.44C102.546 20.6427 102.903 20.9253 103.159 21.288C103.415 21.64 103.543 22.0507 103.543 22.52C103.543 23 103.415 23.4267 103.159 23.8C102.903 24.1733 102.546 24.4667 102.087 24.68C101.639 24.8933 101.122 25 100.535 25H96.6154ZM97.4314 23.48H100.535C100.962 23.48 101.309 23.3787 101.575 23.176C101.842 22.9627 101.975 22.6907 101.975 22.36C101.975 22.008 101.842 21.72 101.575 21.496C101.309 21.272 100.962 21.16 100.535 21.16H97.4314V23.48ZM99.2714 20.68V19.816H100.791C101.058 19.816 101.277 19.7147 101.447 19.512C101.618 19.2987 101.703 19.032 101.703 18.712C101.703 18.4347 101.602 18.2053 101.399 18.024C101.197 17.8427 100.941 17.752 100.631 17.752H96.6314V16.248H100.631C101.133 16.248 101.575 16.3493 101.959 16.552C102.354 16.744 102.663 17.016 102.887 17.368C103.111 17.7093 103.223 18.104 103.223 18.552C103.223 19.1707 102.989 19.6827 102.519 20.088C102.061 20.4827 101.485 20.68 100.791 20.68H99.2714ZM109.197 25.064C108.419 25.064 107.72 24.872 107.101 24.488C106.483 24.0933 105.992 23.5653 105.629 22.904C105.277 22.232 105.101 21.4747 105.101 20.632C105.101 19.7893 105.293 19.032 105.677 18.36C106.072 17.688 106.6 17.16 107.261 16.776C107.933 16.3813 108.685 16.184 109.517 16.184C110.349 16.184 111.096 16.3813 111.757 16.776C112.419 17.16 112.941 17.688 113.325 18.36C113.72 19.032 113.917 19.7893 113.917 20.632H113.293C113.293 21.4747 113.112 22.232 112.749 22.904C112.397 23.5653 111.912 24.0933 111.293 24.488C110.675 24.872 109.976 25.064 109.197 25.064ZM109.517 23.624C110.061 23.624 110.547 23.496 110.973 23.24C111.4 22.9733 111.736 22.616 111.981 22.168C112.227 21.7093 112.349 21.1973 112.349 20.632C112.349 20.056 112.227 19.544 111.981 19.096C111.736 18.6373 111.4 18.28 110.973 18.024C110.547 17.7573 110.061 17.624 109.517 17.624C108.984 17.624 108.499 17.7573 108.061 18.024C107.635 18.28 107.293 18.6373 107.037 19.096C106.792 19.544 106.669 20.056 106.669 20.632C106.669 21.1973 106.792 21.7093 107.037 22.168C107.293 22.616 107.635 22.9733 108.061 23.24C108.499 23.496 108.984 23.624 109.517 23.624ZM113.101 25.016C112.867 25.016 112.669 24.9413 112.509 24.792C112.36 24.632 112.285 24.4347 112.285 24.2V21.752L112.589 20.056L113.917 20.632V24.2C113.917 24.4347 113.837 24.632 113.677 24.792C113.528 24.9413 113.336 25.016 113.101 25.016ZM117.162 28.744C116.928 28.744 116.73 28.664 116.57 28.504C116.421 28.3547 116.346 28.1627 116.346 27.928V20.632C116.357 19.7893 116.554 19.032 116.938 18.36C117.322 17.688 117.845 17.16 118.506 16.776C119.168 16.3813 119.914 16.184 120.746 16.184C121.589 16.184 122.341 16.3813 123.002 16.776C123.664 17.16 124.186 17.688 124.57 18.36C124.965 19.032 125.162 19.7893 125.162 20.632C125.162 21.4747 124.981 22.232 124.618 22.904C124.266 23.5653 123.781 24.0933 123.162 24.488C122.544 24.872 121.845 25.064 121.066 25.064C120.437 25.064 119.856 24.936 119.322 24.68C118.8 24.4133 118.352 24.056 117.978 23.608V27.928C117.978 28.1627 117.904 28.3547 117.754 28.504C117.605 28.664 117.408 28.744 117.162 28.744ZM120.746 23.624C121.29 23.624 121.776 23.496 122.202 23.24C122.629 22.9733 122.965 22.616 123.21 22.168C123.466 21.7093 123.594 21.1973 123.594 20.632C123.594 20.056 123.466 19.544 123.21 19.096C122.965 18.6373 122.629 18.28 122.202 18.024C121.776 17.7573 121.29 17.624 120.746 17.624C120.213 17.624 119.728 17.7573 119.29 18.024C118.864 18.28 118.528 18.6373 118.282 19.096C118.037 19.544 117.914 20.056 117.914 20.632C117.914 21.1973 118.037 21.7093 118.282 22.168C118.528 22.616 118.864 22.9733 119.29 23.24C119.728 23.496 120.213 23.624 120.746 23.624ZM131.548 25.144C130.748 25.144 130.05 25 129.452 24.712C128.866 24.424 128.407 24.0187 128.076 23.496C127.756 22.9627 127.596 22.3387 127.596 21.624V17.048C127.618 16.824 127.703 16.6373 127.852 16.488C128.012 16.328 128.199 16.248 128.412 16.248C128.647 16.248 128.839 16.328 128.988 16.488C129.148 16.6373 129.228 16.8293 129.228 17.064V18.856H131.852C132.546 18.856 133.164 18.9787 133.708 19.224C134.263 19.4587 134.7 19.8053 135.02 20.264C135.34 20.712 135.5 21.2507 135.5 21.88C135.5 22.5093 135.335 23.0693 135.004 23.56C134.684 24.0507 134.231 24.44 133.644 24.728C133.058 25.0053 132.359 25.144 131.548 25.144ZM131.532 23.64C132.215 23.64 132.786 23.496 133.244 23.208C133.703 22.9093 133.932 22.4667 133.932 21.88C133.932 21.3253 133.735 20.9147 133.34 20.648C132.946 20.3707 132.45 20.232 131.852 20.232H129.228V21.592C129.228 21.976 129.33 22.3227 129.532 22.632C129.735 22.9413 130.007 23.1867 130.348 23.368C130.7 23.5493 131.095 23.64 131.532 23.64Z" fill="black"/>
<path d="M60.82 61C60.5533 61 60.32 60.9 60.12 60.7C59.92 60.5 59.82 60.26 59.82 59.98V47.78L58.36 48.4C58.1333 48.4933 57.92 48.54 57.72 48.54C57.4267 48.54 57.18 48.4467 56.98 48.26C56.7933 48.0733 56.7 47.8333 56.7 47.54C56.7 47.3267 56.7533 47.1333 56.86 46.96C56.9667 46.7867 57.1333 46.66 57.36 46.58L60.48 45.46C60.5467 45.4333 60.6133 45.4133 60.68 45.4C60.7467 45.3867 60.8067 45.38 60.86 45.38C61.1667 45.38 61.4067 45.48 61.58 45.68C61.7667 45.8667 61.86 46.1133 61.86 46.42V59.98C61.86 60.26 61.76 60.5 61.56 60.7C61.36 60.9 61.1133 61 60.82 61ZM69.6316 61C68.6182 61 67.7516 60.6933 67.0316 60.08C66.3249 59.4533 65.7849 58.56 65.4116 57.4C65.0382 56.2267 64.8516 54.82 64.8516 53.18C64.8516 51.54 65.0382 50.14 65.4116 48.98C65.7849 47.8067 66.3249 46.9133 67.0316 46.3C67.7516 45.6733 68.6182 45.36 69.6316 45.36C70.6449 45.36 71.5049 45.68 72.2116 46.32C72.9316 46.9467 73.4782 47.8467 73.8516 49.02C74.2249 50.18 74.4116 51.5667 74.4116 53.18C74.4116 54.7933 74.2249 56.1867 73.8516 57.36C73.4782 58.52 72.9316 59.42 72.2116 60.06C71.5049 60.6867 70.6449 61 69.6316 61ZM69.6316 58.92C70.2449 58.92 70.7516 58.6733 71.1516 58.18C71.5516 57.6733 71.8516 56.9867 72.0516 56.12C72.2516 55.2533 72.3516 54.2733 72.3516 53.18C72.3516 52.0867 72.2516 51.1067 72.0516 50.24C71.8516 49.3733 71.5516 48.6867 71.1516 48.18C70.7516 47.6733 70.2449 47.42 69.6316 47.42C69.0182 47.42 68.5116 47.6733 68.1116 48.18C67.7116 48.6733 67.4116 49.3533 67.2116 50.22C67.0116 51.0867 66.9116 52.0733 66.9116 53.18C66.9116 54.2867 67.0116 55.2733 67.2116 56.14C67.4116 57.0067 67.7116 57.6867 68.1116 58.18C68.5249 58.6733 69.0316 58.92 69.6316 58.92ZM87.0534 61C86.0401 61 85.1734 60.6933 84.4534 60.08C83.7468 59.4533 83.2068 58.56 82.8334 57.4C82.4601 56.2267 82.2734 54.82 82.2734 53.18C82.2734 51.54 82.4601 50.14 82.8334 48.98C83.2068 47.8067 83.7468 46.9133 84.4534 46.3C85.1734 45.6733 86.0401 45.36 87.0534 45.36C88.0668 45.36 88.9268 45.68 89.6334 46.32C90.3534 46.9467 90.9001 47.8467 91.2734 49.02C91.6468 50.18 91.8334 51.5667 91.8334 53.18C91.8334 54.7933 91.6468 56.1867 91.2734 57.36C90.9001 58.52 90.3534 59.42 89.6334 60.06C88.9268 60.6867 88.0668 61 87.0534 61ZM87.0534 58.92C87.6668 58.92 88.1734 58.6733 88.5734 58.18C88.9734 57.6733 89.2734 56.9867 89.4734 56.12C89.6734 55.2533 89.7734 54.2733 89.7734 53.18C89.7734 52.0867 89.6734 51.1067 89.4734 50.24C89.2734 49.3733 88.9734 48.6867 88.5734 48.18C88.1734 47.6733 87.6668 47.42 87.0534 47.42C86.4401 47.42 85.9334 47.6733 85.5334 48.18C85.1334 48.6733 84.8334 49.3533 84.6334 50.22C84.4334 51.0867 84.3334 52.0733 84.3334 53.18C84.3334 54.2867 84.4334 55.2733 84.6334 56.14C84.8334 57.0067 85.1334 57.6867 85.5334 58.18C85.9468 58.6733 86.4534 58.92 87.0534 58.92ZM98.6159 61C97.6026 61 96.7359 60.6933 96.0159 60.08C95.3093 59.4533 94.7693 58.56 94.3959 57.4C94.0226 56.2267 93.8359 54.82 93.8359 53.18C93.8359 51.54 94.0226 50.14 94.3959 48.98C94.7693 47.8067 95.3093 46.9133 96.0159 46.3C96.7359 45.6733 97.6026 45.36 98.6159 45.36C99.6293 45.36 100.489 45.68 101.196 46.32C101.916 46.9467 102.463 47.8467 102.836 49.02C103.209 50.18 103.396 51.5667 103.396 53.18C103.396 54.7933 103.209 56.1867 102.836 57.36C102.463 58.52 101.916 59.42 101.196 60.06C100.489 60.6867 99.6293 61 98.6159 61ZM98.6159 58.92C99.2293 58.92 99.7359 58.6733 100.136 58.18C100.536 57.6733 100.836 56.9867 101.036 56.12C101.236 55.2533 101.336 54.2733 101.336 53.18C101.336 52.0867 101.236 51.1067 101.036 50.24C100.836 49.3733 100.536 48.6867 100.136 48.18C99.7359 47.6733 99.2293 47.42 98.6159 47.42C98.0026 47.42 97.4959 47.6733 97.0959 48.18C96.6959 48.6733 96.3959 49.3533 96.1959 50.22C95.9959 51.0867 95.8959 52.0733 95.8959 53.18C95.8959 54.2867 95.9959 55.2733 96.1959 56.14C96.3959 57.0067 96.6959 57.6867 97.0959 58.18C97.5093 58.6733 98.0159 58.92 98.6159 58.92ZM110.178 61C109.165 61 108.298 60.6933 107.578 60.08C106.872 59.4533 106.332 58.56 105.958 57.4C105.585 56.2267 105.398 54.82 105.398 53.18C105.398 51.54 105.585 50.14 105.958 48.98C106.332 47.8067 106.872 46.9133 107.578 46.3C108.298 45.6733 109.165 45.36 110.178 45.36C111.192 45.36 112.052 45.68 112.758 46.32C113.478 46.9467 114.025 47.8467 114.398 49.02C114.772 50.18 114.958 51.5667 114.958 53.18C114.958 54.7933 114.772 56.1867 114.398 57.36C114.025 58.52 113.478 59.42 112.758 60.06C112.052 60.6867 111.192 61 110.178 61ZM110.178 58.92C110.792 58.92 111.298 58.6733 111.698 58.18C112.098 57.6733 112.398 56.9867 112.598 56.12C112.798 55.2533 112.898 54.2733 112.898 53.18C112.898 52.0867 112.798 51.1067 112.598 50.24C112.398 49.3733 112.098 48.6867 111.698 48.18C111.298 47.6733 110.792 47.42 110.178 47.42C109.565 47.42 109.058 47.6733 108.658 48.18C108.258 48.6733 107.958 49.3533 107.758 50.22C107.558 51.0867 107.458 52.0733 107.458 53.18C107.458 54.2867 107.558 55.2733 107.758 56.14C107.958 57.0067 108.258 57.6867 108.658 58.18C109.072 58.6733 109.578 58.92 110.178 58.92ZM128.58 61.08C127.514 61.08 126.56 60.84 125.72 60.36C124.894 59.8667 124.24 59.2067 123.76 58.38C123.294 57.54 123.06 56.5933 123.06 55.54C123.06 54.46 123.294 53.5 123.76 52.66C124.227 51.82 124.867 51.1667 125.68 50.7C126.494 50.22 127.427 49.98 128.48 49.98C129.267 49.98 129.987 50.1333 130.64 50.44C131.294 50.7333 131.88 51.18 132.4 51.78C132.587 51.9933 132.654 52.2133 132.6 52.44C132.547 52.6667 132.4 52.8667 132.16 53.04C131.974 53.1733 131.767 53.22 131.54 53.18C131.314 53.1267 131.107 53.0067 130.92 52.82C130.267 52.1267 129.454 51.78 128.48 51.78C127.8 51.78 127.2 51.94 126.68 52.26C126.16 52.5667 125.754 53 125.46 53.56C125.167 54.12 125.02 54.78 125.02 55.54C125.02 56.26 125.167 56.9 125.46 57.46C125.767 58.02 126.187 58.4667 126.72 58.8C127.254 59.12 127.874 59.28 128.58 59.28C129.047 59.28 129.454 59.2267 129.8 59.12C130.16 59 130.487 58.82 130.78 58.58C130.994 58.4067 131.214 58.3133 131.44 58.3C131.667 58.2733 131.867 58.3333 132.04 58.48C132.267 58.6667 132.394 58.88 132.42 59.12C132.447 59.3467 132.367 59.5533 132.18 59.74C131.22 60.6333 130.02 61.08 128.58 61.08Z" fill="black"/>
<g filter="url(#filter1_d_7_169)">
<path d="M17 91C17 88.2386 19.2386 86 22 86H168C170.761 86 173 88.2386 173 91V98C173 100.761 170.761 103 168 103H22C19.2386 103 17 100.761 17 98V91Z" fill="#E1E1E1"/>
</g>
<g filter="url(#filter2_d_7_169)">
<rect x="17" y="86" width="69.3333" height="17" rx="5" fill="#133E87"/>
</g>
<defs>
<filter id="filter0_d_7_169" x="0" y="0" width="187" height="126" filterUnits="userSpaceOnUse" color-interpolation-filters="sRGB">
<feFlood flood-opacity="0" result="BackgroundImageFix"/>
<feColorMatrix in="SourceAlpha" type="matrix" values="0 0 0 0 0 0 0 0 0 0 0 0 0 0 0 0 0 0 127 0" result="hardAlpha"/>
<feOffset dy="2"/>
<feGaussianBlur stdDeviation="1"/>
<feComposite in2="hardAlpha" operator="out"/>
<feColorMatrix type="matrix" values="0 0 0 0 0 0 0 0 0 0 0 0 0 0 0 0 0 0 0.25 0"/>
<feBlend mode="normal" in2="BackgroundImageFix" result="effect1_dropShadow_7_169"/>
<feBlend mode="normal" in="SourceGraphic" in2="effect1_dropShadow_7_169" result="shape"/>
</filter>
<filter id="filter1_d_7_169" x="13" y="86" width="164" height="25" filterUnits="userSpaceOnUse" color-interpolation-filters="sRGB">
<feFlood flood-opacity="0" result="BackgroundImageFix"/>
<feColorMatrix in="SourceAlpha" type="matrix" values="0 0 0 0 0 0 0 0 0 0 0 0 0 0 0 0 0 0 127 0" result="hardAlpha"/>
<feOffset dy="4"/>
<feGaussianBlur stdDeviation="2"/>
<feComposite in2="hardAlpha" operator="out"/>
<feColorMatrix type="matrix" values="0 0 0 0 0 0 0 0 0 0 0 0 0 0 0 0 0 0 0.25 0"/>
<feBlend mode="normal" in2="BackgroundImageFix" result="effect1_dropShadow_7_169"/>
<feBlend mode="normal" in="SourceGraphic" in2="effect1_dropShadow_7_169" result="shape"/>
</filter>
<filter id="filter2_d_7_169" x="13" y="86" width="77.3334" height="25" filterUnits="userSpaceOnUse" color-interpolation-filters="sRGB">
<feFlood flood-opacity="0" result="BackgroundImageFix"/>
<feColorMatrix in="SourceAlpha" type="matrix" values="0 0 0 0 0 0 0 0 0 0 0 0 0 0 0 0 0 0 127 0" result="hardAlpha"/>
<feOffset dy="4"/>
<feGaussianBlur stdDeviation="2"/>
<feComposite in2="hardAlpha" operator="out"/>
<feColorMatrix type="matrix" values="0 0 0 0 0 0 0 0 0 0 0 0 0 0 0 0 0 0 0.25 0"/>
<feBlend mode="normal" in2="BackgroundImageFix" result="effect1_dropShadow_7_169"/>
<feBlend mode="normal" in="SourceGraphic" in2="effect1_dropShadow_7_169" result="shape"/>
</filter>
</defs>
</svg>
