<svg width="31" height="31" viewBox="0 0 31 31" fill="none" xmlns="http://www.w3.org/2000/svg">
<g clip-path="url(#clip0_1_399)">
<path fill-rule="evenodd" clip-rule="evenodd" d="M4.06006 0.790039C1.98899 0.790039 0.310059 2.46897 0.310059 4.54004V27.04C0.310059 29.1111 1.98899 30.79 4.06006 30.79H26.5601C28.6311 30.79 30.3101 29.1111 30.3101 27.04V4.54004C30.3101 2.46897 28.6311 0.790039 26.5601 0.790039H4.06006ZM22.7502 8.29004H20.1627H20.1611L15.8979 13.0831L12.2112 8.29004H6.87256L13.2516 16.4939L7.20501 23.29H9.79418L14.461 18.0462L18.5395 23.29H23.7476L17.097 14.6439L22.7502 8.29004ZM20.6883 21.767H19.2544L9.89431 9.73311H11.4329L20.6883 21.767Z" fill="white"/>
<path d="M20.1627 8.29004H22.7502L17.097 14.6439L23.7476 23.29H18.5395L14.461 18.0462L9.79418 23.29H7.20501L13.2516 16.4939L6.87256 8.29004H12.2112L15.8979 13.0831L20.1611 8.29004H20.1627ZM19.2544 21.767H20.6883L11.4329 9.73311H9.89431L19.2544 21.767Z" fill="#165BFB"/>
</g>
<defs>
<clipPath id="clip0_1_399">
<rect x="0.310059" y="0.790039" width="30" height="30" rx="4" fill="white"/>
</clipPath>
</defs>
</svg>
