<svg width="31" height="31" viewBox="0 0 31 31" fill="none" xmlns="http://www.w3.org/2000/svg">
<g clip-path="url(#clip0_1_383)">
<path fill-rule="evenodd" clip-rule="evenodd" d="M4.99756 0.790039H25.6226C28.2114 0.790039 30.3101 2.8887 30.3101 5.47754V26.1025C30.3101 28.6914 28.2114 30.79 25.6226 30.79H4.99756C2.40872 30.79 0.310059 28.6914 0.310059 26.1025V5.47754C0.310059 2.8887 2.40872 0.790039 4.99756 0.790039ZM23.59 11.5595C23.4479 10.3154 23.1513 9.95277 22.9412 9.78397C22.6075 9.52138 22.002 9.4276 21.1925 9.37134C19.8949 9.28381 17.689 9.22754 15.3101 9.22754C12.9249 9.22754 10.7252 9.27756 9.4276 9.37134C8.61814 9.4276 8.01259 9.52138 7.67893 9.78397C7.46884 9.95277 7.17842 10.3154 7.03012 11.5595C6.82004 13.3538 6.82004 17.4426 7.03012 19.237C7.17842 20.4811 7.46884 20.8437 7.67893 21.0125C8.01259 21.2751 8.61814 21.3689 9.4276 21.4252C10.7252 21.5127 12.9249 21.569 15.3101 21.569C17.6952 21.569 19.8949 21.5127 21.1925 21.4252C22.002 21.3689 22.6075 21.2751 22.9412 21.0125C23.1513 20.85 23.4417 20.4811 23.59 19.237C23.8001 17.4426 23.8001 13.3538 23.59 11.5595ZM13.271 18.0803V12.7099L18.3625 15.392L13.271 18.0803Z" fill="white"/>
<path d="M23.59 11.5595C23.4479 10.3154 23.1513 9.95277 22.9412 9.78397C22.6075 9.52138 22.002 9.4276 21.1925 9.37133C19.8949 9.28381 17.689 9.22754 15.3101 9.22754C12.9249 9.22754 10.7252 9.27756 9.4276 9.37133C8.61814 9.4276 8.01259 9.52138 7.67893 9.78397C7.46884 9.95277 7.17842 10.3154 7.03012 11.5595C6.82004 13.3538 6.82004 17.4426 7.03012 19.237C7.17842 20.4811 7.46884 20.8437 7.67893 21.0125C8.01259 21.2751 8.61814 21.3689 9.4276 21.4252C10.7252 21.5127 12.9249 21.569 15.3101 21.569C17.6952 21.569 19.8949 21.5127 21.1925 21.4252C22.002 21.3689 22.6075 21.2751 22.9412 21.0125C23.1513 20.85 23.4417 20.4811 23.59 19.237C23.8001 17.4426 23.8001 13.3538 23.59 11.5595ZM13.271 18.0803V12.7099L18.3625 15.392L13.271 18.0803Z" fill="#165BFB"/>
</g>
<defs>
<clipPath id="clip0_1_383">
<rect x="0.310059" y="0.790039" width="30" height="30" rx="4" fill="white"/>
</clipPath>
</defs>
</svg>
